<?xml version="1.0" encoding="UTF-8" standalone="no"?>
<svg
   id="svg15"
   version="1.1"
   viewBox="0 0 96 96"
   sodipodi:docname="kde-folder.svg"
   inkscape:version="1.1.1 (3bf5ae0d25, 2021-09-20)"
   xmlns:inkscape="http://www.inkscape.org/namespaces/inkscape"
   xmlns:sodipodi="http://sodipodi.sourceforge.net/DTD/sodipodi-0.dtd"
   xmlns="http://www.w3.org/2000/svg"
   xmlns:svg="http://www.w3.org/2000/svg">
  <sodipodi:namedview
     id="namedview16"
     pagecolor="#ffffff"
     bordercolor="#666666"
     borderopacity="1.0"
     inkscape:pageshadow="2"
     inkscape:pageopacity="0.0"
     inkscape:pagecheckerboard="0"
     showgrid="false"
     inkscape:zoom="3.4322917"
     inkscape:cx="70.798179"
     inkscape:cy="114.64643"
     inkscape:window-width="1920"
     inkscape:window-height="1139"
     inkscape:window-x="0"
     inkscape:window-y="32"
     inkscape:window-maximized="1"
     inkscape:current-layer="svg15" />
  <defs
     id="defs5455">
    <linearGradient
       id="linearGradient4178"
       x2="0"
       y1="541.79797"
       y2="499.78421"
       gradientTransform="matrix(1.4999996,0,0,1.4995115,-576.85701,-725.43213)"
       gradientUnits="userSpaceOnUse">
      <stop
         id="stop4174-6-7"
         stop-color="#3daee9"
         offset="0" />
      <stop
         id="stop4176-6-5"
         stop-color="#6cc1ef"
         offset="1" />
    </linearGradient>
  </defs>
  <g
     id="layer1"
     transform="translate(-384.57144,-483.798)"
     stroke-width="1.5">
    <path
       id="rect4180"
       transform="translate(384.57144,483.798)"
       d="m6 9-1.17e-5 20.999996h84l1.2e-5 -14.999996h-42l-6-6z"
       fill="#147eb8" />
    <path
       id="rect4113"
       transform="translate(384.57144,483.798)"
       d="M 38.999988,23.999996 33,30 H 5 V 87 H 91 V 24 Z"
       fill="url(#linearGradient4178)" />
    <g
       fill-opacity=".235294"
       id="g12">
      <path
         id="path4224-1"
         d="m389.57143 513.798v1h29l4.99999-6.99983-6.00001 6z"
         fill="#fff"
         fill-rule="evenodd" />
      <path
         id="path4228-0"
         d="m390.57143 512.798v1.00017h26.99998l6.00002-6.00017-7 5z"
         fill-rule="evenodd" />
      <path
         id="path4151-2"
         transform="translate(384.57144,483.798)"
         d="m4.9999883 85.999996v1l86-0.01628v-0.983722z" />
      <path
         id="path4196"
         transform="translate(384.57144,483.798)"
         d="M 42,9 46.999988,15.999996 90,16 V 15 H 48 Z"
         fill="#fff"
         fill-rule="evenodd" />
    </g>
  </g>
  <path
     id="path901"
     style="font-style:normal;font-variant:normal;font-weight:normal;font-stretch:normal;font-size:95.25px;line-height:59.5312px;font-family:'Hard Gothic';-inkscape-font-specification:'Hard Gothic, Normal';font-variant-ligatures:normal;font-variant-caps:normal;font-variant-numeric:normal;font-feature-settings:normal;text-align:start;letter-spacing:0px;word-spacing:0px;writing-mode:lr-tb;text-anchor:start;fill:#000000;fill-opacity:1;stroke:none;stroke-width:1.3122"
     d="M 89.127127,57.285587 69.076713,45.738227 v 4.618944 l 12.334678,6.928416 -12.334678,6.980903 v 4.618944 z M 39.706422,74.659112 H 56.292643 V 59.227643 H 39.706422 Z M 56.292643,39.177226 v 16.953625 0 h 3.884112 V 77.755904 H 35.874798 V 39.177226 Z m -3.831632,3.096793 H 39.706422 V 56.130851 H 52.461011 Z M 7.4795562,56.918171 27.529984,45.370811 v 4.618944 l -12.334692,6.928416 12.334692,7.348319 v 4.19904 z" />
</svg>
