<?xml version="1.0" encoding="UTF-8" standalone="no"?>
<svg
        xmlns:dc="http://purl.org/dc/elements/1.1/"
        xmlns:cc="http://creativecommons.org/ns#"
        xmlns:rdf="http://www.w3.org/1999/02/22-rdf-syntax-ns#"
        xmlns="http://www.w3.org/2000/svg"
        xmlns:sodipodi="http://sodipodi.sourceforge.net/DTD/sodipodi-0.dtd"
        xmlns:inkscape="http://www.inkscape.org/namespaces/inkscape"
        id="svg8"
        version="1.1"
        viewBox="0 0 500.97244 179.63348"
        height="179.63348mm"
        width="500.97244mm"
        sodipodi:docname="logo.svg"
        inkscape:version="0.92.4 5da689c313, 2019-01-14">
  <sodipodi:namedview
     pagecolor="#ffffff"
     bordercolor="#666666"
     borderopacity="1"
     objecttolerance="10"
     gridtolerance="10"
     guidetolerance="10"
     inkscape:pageopacity="0"
     inkscape:pageshadow="2"
     inkscape:window-width="1920"
     inkscape:window-height="1143"
     id="namedview830"
     showgrid="false"
     inkscape:zoom="0.26104226"
     inkscape:cx="785.11575"
     inkscape:cy="-257.431"
     inkscape:window-x="0"
     inkscape:window-y="28"
     inkscape:window-maximized="1"
     inkscape:current-layer="svg8" />
  <defs
     id="defs2" />
  <metadata
     id="metadata5">
    <rdf:RDF>
      <cc:Work
         rdf:about="">
        <dc:format>image/svg+xml</dc:format>
        <dc:type
           rdf:resource="http://purl.org/dc/dcmitype/StillImage" />
        <dc:title />
      </cc:Work>
    </rdf:RDF>
  </metadata>
  <path
     inkscape:connector-curvature="0"
     style="fill:#333333;fill-rule:evenodd;stroke-width:0.22120488"
     d="M 3.464909e-6,-3.4466797e-7 V 179.63348 H 286.54584 A 457.96236,212.76297 0 0 1 254.22016,101.28891 457.96236,212.76297 0 0 1 309.53977,-3.4466797e-7 Z"
     id="rect908" />
  <g
     id="g946"
     style="fill:#ffffff"
     transform="translate(-502.18638,-90.710885)">
    <path
       inkscape:connector-curvature="0"
       d="m 527.36345,176.27639 v 30.52837 h 18.08261 q 9.09712,0 13.45034,-3.73931 4.40904,-3.79512 4.40904,-11.55278 0,-7.81348 -4.40904,-11.49698 -4.35322,-3.7393 -13.45034,-3.7393 z m 0,-34.26768 v 25.11475 h 16.68735 q 8.25996,0 12.27832,-3.06958 4.07417,-3.12539 4.07417,-9.48779 0,-6.3066 -4.07417,-9.43199 -4.01836,-3.12539 -12.27832,-3.12539 z m -11.27373,-9.26455 h 28.79824 q 12.89223,0 19.86855,5.35781 6.97632,5.35782 6.97632,15.23628 0,7.64605 -3.57188,12.1667 -3.57187,4.52066 -10.49238,5.63687 8.31577,1.78593 12.89224,7.47861 4.63227,5.63686 4.63227,14.12007 0,11.16211 -7.59023,17.24546 -7.59024,6.08335 -21.59868,6.08335 h -29.91445 z"
       style="font-style:normal;font-variant:normal;font-weight:normal;font-stretch:normal;font-size:114.29999542px;line-height:14.8828125px;font-family:'Adobe Courier';-inkscape-font-specification:'Adobe Courier, Normal';font-variant-ligatures:normal;font-variant-caps:normal;font-variant-numeric:normal;font-feature-settings:normal;text-align:start;letter-spacing:0px;word-spacing:0px;writing-mode:lr-tb;text-anchor:start;fill:#ffffff;fill-opacity:1;stroke:none;stroke-width:0.59531248"
       id="path913" />
    <path
       inkscape:connector-curvature="0"
       d="m 594.05705,129.2281 h 10.26914 v 86.84121 h -10.26914 z"
       style="font-style:normal;font-variant:normal;font-weight:normal;font-stretch:normal;font-size:114.29999542px;line-height:14.8828125px;font-family:'Adobe Courier';-inkscape-font-specification:'Adobe Courier, Normal';font-variant-ligatures:normal;font-variant-caps:normal;font-variant-numeric:normal;font-feature-settings:normal;text-align:start;letter-spacing:0px;word-spacing:0px;writing-mode:lr-tb;text-anchor:start;fill:#ffffff;fill-opacity:1;stroke:none;stroke-width:0.59531248"
       id="path915" />
    <path
       inkscape:connector-curvature="0"
       d="m 650.03503,160.76106 q -8.25996,0 -13.05967,6.47402 -4.79971,6.41821 -4.79971,17.63613 0,11.21792 4.7439,17.69194 4.79971,6.41822 13.11548,6.41822 8.20415,0 13.00386,-6.47403 4.7997,-6.47402 4.7997,-17.63613 0,-11.1063 -4.7997,-17.58032 -4.79971,-6.52983 -13.00386,-6.52983 z m 0,-8.70645 q 13.39453,0 21.04057,8.70645 7.64605,8.70644 7.64605,24.11015 0,15.3479 -7.64605,24.11016 -7.64604,8.70644 -21.04057,8.70644 -13.45034,0 -21.09639,-8.70644 -7.59023,-8.76226 -7.59023,-24.11016 0,-15.40371 7.59023,-24.11015 7.64605,-8.70645 21.09639,-8.70645 z"
       style="font-style:normal;font-variant:normal;font-weight:normal;font-stretch:normal;font-size:114.29999542px;line-height:14.8828125px;font-family:'Adobe Courier';-inkscape-font-specification:'Adobe Courier, Normal';font-variant-ligatures:normal;font-variant-caps:normal;font-variant-numeric:normal;font-feature-settings:normal;text-align:start;letter-spacing:0px;word-spacing:0px;writing-mode:lr-tb;text-anchor:start;fill:#ffffff;fill-opacity:1;stroke:none;stroke-width:0.59531248"
       id="path917" />
    <path
       inkscape:connector-curvature="0"
       d="m 736.87623,184.08986 q 0,-11.16211 -4.63227,-17.30127 -4.57647,-6.13916 -12.89224,-6.13916 -8.25996,0 -12.89223,6.13916 -4.57647,6.13916 -4.57647,17.30127 0,11.1063 4.57647,17.24546 4.63227,6.13916 12.89223,6.13916 8.31577,0 12.89224,-6.13916 4.63227,-6.13916 4.63227,-17.24546 z m 10.26914,24.22178 q 0,15.96182 -7.08794,23.71948 -7.08793,7.81348 -21.7103,7.81348 -5.41362,0 -10.21333,-0.83716 -4.7997,-0.78135 -9.32036,-2.45566 v -9.99009 q 4.52066,2.45566 8.92969,3.62768 4.40903,1.17202 8.9855,1.17202 10.10171,0 15.12465,-5.302 5.02295,-5.24619 5.02295,-15.906 v -5.07876 q -3.1812,5.52524 -8.14834,8.25996 -4.96713,2.73472 -11.88764,2.73472 -11.49697,0 -18.5291,-8.76226 -7.03213,-8.76226 -7.03213,-23.21719 0,-14.51074 7.03213,-23.27299 7.03213,-8.76226 18.5291,-8.76226 6.92051,0 11.88764,2.73472 4.96714,2.73471 8.14834,8.25996 v -9.48779 h 10.26914 z"
       style="font-style:normal;font-variant:normal;font-weight:normal;font-stretch:normal;font-size:114.29999542px;line-height:14.8828125px;font-family:'Adobe Courier';-inkscape-font-specification:'Adobe Courier, Normal';font-variant-ligatures:normal;font-variant-caps:normal;font-variant-numeric:normal;font-feature-settings:normal;text-align:start;letter-spacing:0px;word-spacing:0px;writing-mode:lr-tb;text-anchor:start;fill:#ffffff;fill-opacity:1;stroke:none;stroke-width:0.59531248"
       id="path919" />
  </g>
  <path
     inkscape:connector-curvature="0"
     id="path921"
     style="font-style:normal;font-variant:normal;font-weight:normal;font-stretch:normal;font-size:114.29999542px;line-height:14.8828125px;font-family:'Adobe Courier';-inkscape-font-specification:'Adobe Courier, Normal';font-variant-ligatures:normal;font-variant-caps:normal;font-variant-numeric:normal;font-feature-settings:normal;text-align:start;letter-spacing:0px;word-spacing:0px;writing-mode:lr-tb;text-anchor:start;fill:#333333;fill-opacity:1;stroke:none;stroke-width:0.59531248"
     d="m 294.51876,93.937085 q -12.44575,0 -17.24546,2.84634 -4.7997,2.84633 -4.7997,9.711025 0,5.46943 3.57187,8.70645 3.62769,3.1812 9.82266,3.1812 8.53901,0 13.67358,-6.02754 5.19038,-6.08335 5.19038,-16.129245 v -2.28823 z m 20.48247,-4.2416 v 35.662935 h -10.26914 v -9.4878 q -3.51606,5.69268 -8.76226,8.4274 -5.24619,2.6789 -12.83642,2.6789 -9.59941,0 -15.29209,-5.35781 -5.63686,-5.41362 -5.63686,-14.45493 0,-10.548195 7.03212,-15.906005 7.08794,-5.35781 21.09639,-5.35781 h 14.39912 v -1.00459 q 0,-7.08794 -4.68809,-10.93887 -4.63227,-3.90673 -13.05966,-3.90673 -5.35782,0 -10.43657,1.28364 -5.07876,1.28364 -9.76685,3.85093 v -9.4878 q 5.63686,-2.17661 10.93887,-3.23701 5.302,-1.11621 10.32495,-1.11621 13.56196,0 20.25923,7.03213 6.69726,7.03213 6.69726,21.31963 z" />
  <path
     inkscape:connector-curvature="0"
     id="path923"
     style="font-style:normal;font-variant:normal;font-weight:normal;font-stretch:normal;font-size:114.29999542px;line-height:14.8828125px;font-family:'Adobe Courier';-inkscape-font-specification:'Adobe Courier, Normal';font-variant-ligatures:normal;font-variant-caps:normal;font-variant-numeric:normal;font-feature-settings:normal;text-align:start;letter-spacing:0px;word-spacing:0px;writing-mode:lr-tb;text-anchor:start;fill:#333333;fill-opacity:1;stroke:none;stroke-width:0.59531248"
     d="m 346.31093,45.102855 v 17.74776 h 21.1522 v 7.9809 h -21.1522 v 33.932815 q 0,7.64605 2.06499,9.82266 2.1208,2.17661 8.53902,2.17661 h 10.54819 v 8.59483 h -10.54819 q -11.88765,0 -16.4083,-4.40904 -4.52066,-4.46484 -4.52066,-16.18506 V 70.831515 h -7.53442 v -7.9809 h 7.53442 v -17.74776 z" />
  <path
     inkscape:connector-curvature="0"
     id="path925"
     style="font-style:normal;font-variant:normal;font-weight:normal;font-stretch:normal;font-size:114.29999542px;line-height:14.8828125px;font-family:'Adobe Courier';-inkscape-font-specification:'Adobe Courier, Normal';font-variant-ligatures:normal;font-variant-caps:normal;font-variant-numeric:normal;font-feature-settings:normal;text-align:start;letter-spacing:0px;word-spacing:0px;writing-mode:lr-tb;text-anchor:start;fill:#333333;fill-opacity:1;stroke:none;stroke-width:0.59531248"
     d="m 405.19108,70.050175 q -8.25996,0 -13.05967,6.47402 -4.79971,6.41821 -4.79971,17.63613 0,11.217915 4.7439,17.691935 4.79971,6.41822 13.11548,6.41822 8.20415,0 13.00386,-6.47403 4.7997,-6.47402 4.7997,-17.636125 0,-11.1063 -4.7997,-17.58032 -4.79971,-6.52983 -13.00386,-6.52983 z m 0,-8.70645 q 13.39453,0 21.04057,8.70645 7.64605,8.70644 7.64605,24.11015 0,15.347895 -7.64605,24.110155 -7.64604,8.70645 -21.04057,8.70645 -13.45034,0 -21.09639,-8.70644 -7.59023,-8.76226 -7.59023,-24.110165 0,-15.40371 7.59023,-24.11015 7.64605,-8.70645 21.09639,-8.70645 z" />
  <path
     inkscape:connector-curvature="0"
     id="path927"
     style="font-style:normal;font-variant:normal;font-weight:normal;font-stretch:normal;font-size:114.29999542px;line-height:14.8828125px;font-family:'Adobe Courier';-inkscape-font-specification:'Adobe Courier, Normal';font-variant-ligatures:normal;font-variant-caps:normal;font-variant-numeric:normal;font-feature-settings:normal;text-align:start;letter-spacing:0px;word-spacing:0px;writing-mode:lr-tb;text-anchor:start;fill:#333333;fill-opacity:1;stroke:none;stroke-width:0.59531248"
     d="m 487.12095,72.450025 q -1.73013,-1.00459 -3.79512,-1.45108 -2.00918,-0.50229 -4.46484,-0.50229 -8.70645,0 -13.39453,5.69268 -4.63228,5.63686 -4.63228,16.24086 V 125.35843 H 450.50923 V 62.850615 h 10.32495 v 9.71103 q 3.23701,-5.69268 8.42739,-8.42739 5.19038,-2.79053 12.61319,-2.79053 1.0604,0 2.34404,0.16743 1.28364,0.11162 2.84634,0.39068 z" />
  <rect
     style="fill:#333333;fill-rule:evenodd;stroke-width:0.25932235"
     id="rect948"
     width="215.5368"
     height="6.4900661"
     x="269.20432"
     y="138.60699" />
</svg>
